<?xml version="1.0" standalone="no"?>
<!DOCTYPE svg PUBLIC "-//W3C//DTD SVG 20010904//EN"
 "http://www.w3.org/TR/2001/REC-SVG-20010904/DTD/svg10.dtd">
<svg version="1.0" xmlns="http://www.w3.org/2000/svg"
 width="250.000000pt" height="156.000000pt" viewBox="0 0 250.000000 156.000000"
 preserveAspectRatio="xMidYMid meet">
<metadata>
Created by potrace 1.16, written by Peter Selinger 2001-2019
</metadata>
<g transform="translate(0.000000,156.000000) scale(0.100000,-0.100000)"
fill="#000000" stroke="none">
<path d="M1923 1302 c-33 -21 -32 -95 2 -108 13 -5 15 -36 15 -200 0 -180 3
-201 26 -191 3 1 5 85 4 187 l-1 186 26 22 c30 26 33 71 7 95 -19 18 -59 22
-79 9z"/>
<path d="M472 1259 c-16 -6 -22 -17 -22 -38 0 -37 -11 -45 -44 -29 -23 10 -28
9 -40 -7 -12 -16 -12 -22 0 -41 19 -27 8 -54 -21 -54 -29 0 -42 -47 -14 -55 9
-3 23 -12 30 -21 10 -12 8 -19 -10 -38 -30 -32 -15 -66 24 -59 35 7 56 -12 45
-42 -14 -38 24 -61 50 -30 19 23 49 18 60 -10 12 -33 57 -35 62 -4 5 35 33 47
57 25 29 -27 52 -6 49 43 -3 34 -1 36 29 39 42 4 56 39 24 60 -28 19 -27 40 4
54 16 7 24 17 20 26 -3 7 -5 18 -5 23 0 5 -11 9 -24 9 -36 0 -49 22 -30 49 15
20 15 24 -1 41 -16 17 -20 18 -45 5 -32 -17 -40 -12 -40 26 0 21 -6 28 -27 34
-15 3 -29 2 -31 -3 -1 -5 -9 -18 -17 -28 -14 -18 -16 -18 -38 7 -18 20 -28 24
-45 18z m134 -100 c54 -25 90 -90 79 -141 -22 -99 -128 -149 -210 -98 -95 59
-83 200 20 246 42 18 62 17 111 -7z"/>
<path d="M1187 1254 c-13 -13 -7 -32 10 -36 36 -7 8 -186 -29 -188 -12 0 -9
95 3 107 22 22 -3 33 -71 33 -68 0 -93 -11 -71 -33 7 -7 11 -62 11 -152 0
-125 2 -144 18 -158 24 -22 65 -21 85 1 12 13 17 37 17 79 0 58 2 64 45 114
44 52 45 54 45 126 l0 73 60 0 60 0 0 -76 c0 -73 1 -77 40 -123 28 -33 40 -57
40 -79 0 -22 5 -32 15 -32 11 0 15 11 15 39 0 31 -8 49 -40 87 -38 46 -40 52
-40 116 0 55 3 68 16 68 9 0 14 7 12 18 -3 15 -18 17 -119 20 -63 1 -118 -1
-122 -4z m-62 -264 l0 -145 -25 0 -25 0 -3 148 -3 148 28 -3 28 -3 0 -145z"/>
<path d="M1762 1204 c-32 -22 -30 -78 3 -100 16 -10 25 -26 25 -41 0 -15 17
-45 40 -73 39 -47 40 -50 40 -124 0 -63 2 -74 15 -70 12 5 15 24 15 84 0 76
-1 79 -40 126 -22 27 -40 55 -40 62 0 8 11 27 25 44 30 36 31 48 4 82 -23 29
-54 33 -87 10z"/>
<path d="M2052 1160 c-44 -18 -48 -88 -6 -113 9 -5 14 -25 14 -51 0 -34 -4
-45 -21 -52 -19 -9 -21 -18 -21 -77 0 -37 3 -67 6 -67 3 0 11 0 16 0 6 0 10
26 10 59 0 51 3 61 20 66 17 5 20 15 20 57 0 42 4 53 25 70 16 12 25 29 25 46
0 33 -8 45 -37 61 -25 13 -21 13 -51 1z"/>
<path d="M990 433 c-42 -22 -62 -58 -55 -97 7 -42 20 -53 85 -77 64 -23 78
-40 54 -64 -19 -19 -47 -19 -84 0 -27 14 -30 14 -40 -4 -14 -27 -14 -29 20
-46 56 -29 158 -11 174 30 24 64 -8 121 -82 143 -50 15 -69 36 -52 57 15 18
53 19 82 4 18 -9 24 -8 35 7 18 24 17 29 -11 42 -48 22 -90 23 -126 5z"/>
<path d="M1839 438 c-20 -5 -51 -25 -70 -44 -29 -30 -33 -42 -37 -97 -4 -72
16 -114 70 -148 46 -28 150 -23 196 10 l33 23 -22 24 -23 24 -24 -22 c-17 -17
-36 -23 -69 -23 -60 0 -93 36 -93 101 0 85 78 130 151 87 27 -16 29 -16 49 2
l22 20 -22 17 c-22 18 -84 39 -110 37 -8 -1 -31 -5 -51 -11z"/>
<path d="M530 285 l0 -155 35 0 35 0 0 155 0 155 -35 0 -35 0 0 -155z"/>
<path d="M670 285 l0 -155 110 0 110 0 0 30 0 30 -75 0 -75 0 0 35 0 35 65 0
65 0 0 30 0 30 -65 0 -65 0 0 35 0 35 75 0 c73 0 75 1 75 25 l0 25 -110 0
-110 0 0 -155z"/>
<path d="M1170 416 c0 -23 5 -25 48 -28 l47 -3 3 -128 3 -128 32 3 32 3 2 125
1 125 46 3 c41 3 46 6 46 28 l0 24 -130 0 -130 0 0 -24z"/>
<path d="M1470 285 l0 -155 110 0 110 0 0 30 0 30 -75 0 -75 0 0 35 0 34 67 3
c65 3 68 4 68 28 0 24 -3 25 -68 28 l-67 3 0 34 0 35 75 0 c73 0 75 1 75 25
l0 25 -110 0 -110 0 0 -155z"/>
</g>
</svg>
